<svg viewBox="0 0 1341 1200" fill="none" xmlns="http://www.w3.org/2000/svg">
<rect width="1341" height="1200" fill="#1E1E1E"/>
<g id="wave-left" clip-path="url(#clip0_0_1)">
<rect width="1341" height="1200" fill="white"/>
<path id="lv-0" d="M0 1200V0H1320.54L1322.94 16C1325.45 31.3334 1330.26 62 1327.34 92.6666C1325.66 110.237 1321.37 127.808 1317.07 145.429L1317.07 145.439C1313.86 158.568 1310.65 171.727 1308.51 184.933C1303.49 215.733 1304.12 246.933 1311.44 277.733C1314.33 289.972 1318.28 302.169 1322.22 314.341L1322.22 314.345C1328.23 332.936 1334.22 351.468 1336.43 370C1339.95 399.476 1333.91 428.951 1327.86 458.427C1327.72 459.105 1327.58 459.784 1327.44 460.462L1327.13 462C1320.85 492.667 1314.99 523.333 1311.86 554.267C1308.72 585.067 1308.3 616.267 1313.42 647.067C1316.28 664.636 1320.88 682.121 1325.48 699.567L1325.49 699.601C1328.98 712.86 1332.47 726.097 1335.18 739.333C1341.46 770 1343.55 800.667 1336.96 831.333C1333.73 846.122 1328.51 860.91 1323.27 875.728L1323.26 875.765L1323.25 875.779C1317.64 891.673 1312.01 907.6 1308.82 923.6C1302.76 954.4 1305.89 985.6 1311.33 1016.4C1312.78 1024.79 1314.4 1033.16 1316.02 1041.51L1316.03 1041.55L1316.03 1041.56C1320.39 1064 1324.72 1086.33 1325.56 1108.67C1326.81 1139.33 1321.58 1170 1318.97 1185.33V1185.33L1316.47 1200H0Z" fill="#39EBFF"/>
<path id="lv-1" fill-rule="evenodd" clip-rule="evenodd" d="M0 0V1200H1307V1199.93L1302.56 1184.67C1298.1 1169.33 1289.19 1138.67 1284.44 1108C1279.58 1077.33 1278.99 1046.67 1282.45 1015.73C1284 1002.03 1286.34 988.253 1288.69 974.464C1291.62 957.255 1294.55 940.032 1295.93 922.933C1297.78 899.72 1296.8 876.657 1295.81 853.632C1295.48 845.975 1295.16 838.32 1294.93 830.667C1294.14 800 1295.13 769.333 1296.32 738.667C1297.41 708 1298.8 677.333 1300.38 646.4C1300.5 644.237 1300.62 642.073 1300.74 639.908C1302.33 611.221 1303.93 582.237 1302.36 553.6C1301.62 539.029 1300.04 524.517 1298.46 510.036C1296.68 493.776 1294.92 477.555 1294.34 461.333C1293.43 437.915 1294.95 414.497 1296.47 391.079C1296.94 383.831 1297.41 376.581 1297.81 369.333C1299.39 338.667 1299.79 308 1300.09 277.067L1300.12 273.768C1300.41 244.041 1300.7 213.968 1298.6 184.267C1297.43 167.672 1295.58 151.155 1293.73 134.673C1292.13 120.431 1290.54 106.216 1289.39 92C1286.91 61.3333 1286.52 30.6666 1286.42 15.3333L1286.22 0H0Z" fill="#3988FF"/>
<path id="lv-2" fill-rule="evenodd" clip-rule="evenodd" d="M0 0V1200L1265.93 1200V1184.67C1265.93 1169.33 1265.93 1138.67 1269.27 1108C1270.97 1092.77 1273.48 1077.54 1275.98 1062.28C1278.53 1046.81 1281.07 1031.3 1282.8 1015.73C1286.14 984.933 1286.14 953.733 1279.57 922.933C1276.43 908.159 1271.8 893.445 1267.18 878.764C1262.12 862.705 1257.07 846.687 1254.01 830.667C1249.01 804.935 1249.2 779.203 1249.39 753.471C1249.43 748.536 1249.47 743.601 1249.47 738.667C1249.47 732.355 1249.41 726.044 1249.35 719.729C1249.12 695.365 1248.89 670.967 1252.09 646.4C1253.56 635.205 1255.75 623.959 1257.94 612.697C1261.78 592.975 1265.63 573.205 1265.63 553.6C1265.63 538.017 1263.22 522.501 1260.82 507.02C1258.45 491.769 1256.08 476.551 1256.03 461.333C1255.91 443.131 1259.07 424.929 1262.22 406.727C1264.38 394.263 1266.54 381.797 1267.65 369.333C1269.19 351.411 1268.58 333.489 1267.98 315.513C1267.54 302.732 1267.11 289.923 1267.45 277.067C1267.91 259.331 1269.92 241.463 1271.92 223.613C1273.4 210.467 1274.88 197.331 1275.73 184.267C1277.54 156.581 1276.6 129.111 1275.66 101.661C1275.54 98.4413 1275.43 95.22 1275.33 92C1274.6 69.944 1274.08 47.8879 1273.7 31.5359C1273.55 25.1532 1273.42 19.6386 1273.31 15.3333L1273 0H0Z" fill="#4D39FF"/>
<path id="lv-3" fill-rule="evenodd" clip-rule="evenodd" d="M0 0V1200L1230.77 1200V1184.67C1230.77 1169.33 1230.77 1138.67 1233.08 1108C1234.78 1086.47 1237.56 1064.95 1240.36 1043.33C1241.54 1034.15 1242.73 1024.95 1243.84 1015.73C1245.75 999.931 1247.37 984.023 1248 968.117V941.015C1247.73 934.976 1247.26 928.947 1246.55 922.933C1244.76 907.985 1241.48 893.1 1238.21 878.248C1234.72 862.363 1231.23 846.515 1229.56 830.667C1227.63 811.643 1228.29 792.617 1228.95 773.593C1229.35 761.951 1229.76 750.309 1229.56 738.667C1229.37 727.044 1228.59 715.421 1227.81 703.784C1226.52 684.716 1225.24 665.609 1226.55 646.4C1227.54 632.544 1229.92 618.607 1232.3 604.661C1235.21 587.608 1238.13 570.544 1238.51 553.6C1238.81 538.563 1237.15 523.589 1235.5 508.648C1233.75 492.852 1232.01 477.093 1232.58 461.333C1233.27 443.923 1236.8 426.512 1240.34 409.101C1243.03 395.845 1245.72 382.589 1247.16 369.333C1247.51 366.193 1247.79 363.053 1248 359.913V323.523C1247.12 308.081 1245.36 292.608 1243.54 277.067C1243.33 275.305 1243.11 273.544 1242.9 271.781C1239.37 242.701 1235.81 213.305 1236 184.267C1236.06 164.072 1237.97 143.991 1239.88 123.949C1240.89 113.292 1241.9 102.647 1242.63 92C1244.85 61.3333 1244.85 30.6666 1244.85 15.3333V0H0Z" fill="#1200B4"/>
</g>
<defs>
<clipPath id="clip0_0_1">
<rect width="1341" height="1200" fill="white"/>
</clipPath>
</defs>
</svg>
