<svg width="1335" height="1200" viewBox="0 0 1335 1200" fill="none" xmlns="http://www.w3.org/2000/svg">
<g id="wave-right" clip-path="url(#clip0_18_15)">
<path id="rv-0" d="M13.0688 1184.67L10.578 1200H1335V0H14.5633L16.8548 15.3333C19.2459 30.6666 23.829 61.3334 21.0393 92C18.2496 122.667 7.88801 153.333 3.10572 184.267C-1.67657 215.067 -1.07879 246.267 5.89538 277.067C12.8695 308 26.2201 338.667 29.7072 369.333C33.1943 400 26.8179 430.667 20.84 461.333C14.8622 492 9.28286 522.667 6.29393 553.6C3.305 584.4 2.90647 615.6 7.78839 646.4C12.5707 677.333 22.5338 708 28.5116 738.667C34.4895 769.333 36.4821 800 30.2054 830.667C23.829 861.333 9.28283 892 3.4046 922.933C-2.37399 953.733 0.61496 984.933 5.79577 1015.73C10.877 1046.67 18.2496 1077.33 19.3456 1108C20.5411 1138.67 15.5596 1169.33 13.0688 1184.67Z" fill="#39EBFF"/>
<path id="rv-1" d="M54.769 1200L50.3117 1184.67C45.8544 1169.33 36.9399 1138.67 32.1854 1108C27.3319 1077.33 26.7376 1046.67 30.2044 1015.73C33.6712 984.933 41.199 953.733 43.6753 922.933C46.1515 892 43.5762 861.333 42.6848 830.667C41.8924 800 42.8829 769.333 44.0715 738.667C45.1611 708 46.5477 677.333 48.1326 646.4C49.8164 615.6 51.7974 584.4 50.1136 553.6C48.5288 522.667 43.18 492 42.0905 461.333C40.9019 430.667 43.8734 400 45.5573 369.333C47.1421 338.667 47.5383 308 47.8354 277.067L47.8675 273.768C48.1576 244.041 48.451 213.968 46.3497 184.267C44.1705 153.333 39.6142 122.667 37.138 92C34.6617 61.3333 34.2655 30.6666 34.1664 15.3333L33.9683 0H1335V1200H54.769Z" fill="#3988FF"/>
<path id="rv-2" d="M67.4322 1200V1184.67C67.4322 1169.33 67.4322 1138.67 70.7113 1108C74.0896 1077.33 80.6477 1046.67 84.0261 1015.73C87.3051 984.933 87.3051 953.733 80.8464 922.933C74.3877 892 61.4704 861.333 55.7073 830.667C49.8448 800 51.2359 769.333 51.2359 738.667C51.2359 708 49.8447 677.333 53.8193 646.4C57.7939 615.6 67.1342 584.4 67.1342 553.6C67.1342 522.667 57.7939 492 57.6946 461.333C57.4958 430.667 66.4386 400 69.1215 369.333C71.7049 338.667 68.1278 308 68.9227 277.067C69.7176 246.267 75.0833 215.067 77.0706 184.267C79.0579 153.333 77.6668 122.667 76.6731 92C75.6795 61.3333 75.0833 30.6666 74.6858 15.3333L74.3877 0H1335V1200L67.4322 1200Z" fill="#4D39FF"/>
<path id="rv-3" d="M91.7712 1184.67V1200H1335V584V0H105.846V15.3333C105.846 30.6666 105.846 61.3334 103.634 92C101.523 122.667 97.0994 153.333 96.9989 184.267C96.7978 215.067 100.819 246.267 104.539 277.067C108.158 308 111.576 338.667 108.158 369.333C104.84 400 94.7872 430.667 93.5808 461.333C92.4749 492 100.115 522.667 99.5122 553.6C98.8085 584.4 89.7606 615.6 87.5489 646.4C85.4377 677.333 90.0622 708 90.5648 738.667C91.0675 769.333 87.4483 800 90.5648 830.667C93.7819 861.333 103.835 892 107.555 922.933C111.174 953.733 108.56 984.933 104.84 1015.73C101.121 1046.67 96.4962 1077.33 94.0835 1108C91.7712 1138.67 91.7712 1169.33 91.7712 1184.67V1184.67Z" fill="#1200B4"/>
</g>
<defs>
<clipPath id="clip0_18_15">
<rect width="1335" height="1200" fill="white"/>
</clipPath>
</defs>
</svg>
